<?xml version="1.0" encoding="UTF-8" standalone="no"?>
<!-- Created with Inkscape (http://www.inkscape.org/) -->

<svg
   xmlns:dc="http://purl.org/dc/elements/1.1/"
   xmlns:cc="http://creativecommons.org/ns#"
   xmlns:rdf="http://www.w3.org/1999/02/22-rdf-syntax-ns#"
   xmlns:svg="http://www.w3.org/2000/svg"
   xmlns="http://www.w3.org/2000/svg"
   xmlns:xlink="http://www.w3.org/1999/xlink"
   xmlns:sodipodi="http://sodipodi.sourceforge.net/DTD/sodipodi-0.dtd"
   xmlns:inkscape="http://www.inkscape.org/namespaces/inkscape"
   width="16"
   height="16"
   viewBox="0 0 4.2333331 4.2333335"
   version="1.1"
   id="svg36786"
   inkscape:export-filename="/home/redhound/Рабочий стол/Projects/R7.Epsilon/R7.Epsilon.Customizations/R7.Epsilon.Customizations/Hosts/volgau.com/Portals/0/images/favicons/favicon-16x16.png"
   inkscape:export-xdpi="96"
   inkscape:export-ydpi="96"
   inkscape:version="0.92.1 r15371"
   sodipodi:docname="favicon-16x16.svg">
  <defs
     id="defs36780">
    <linearGradient
       inkscape:collect="always"
       id="linearGradient4524">
      <stop
         style="stop-color:#005528;stop-opacity:1;"
         offset="0"
         id="stop4520" />
      <stop
         id="stop4528"
         offset="0.87383878"
         style="stop-color:#005528;stop-opacity:1" />
      <stop
         style="stop-color:#ffec00;stop-opacity:1"
         offset="0.87551725"
         id="stop4530" />
      <stop
         style="stop-color:#ffec00;stop-opacity:1"
         offset="1"
         id="stop4522" />
    </linearGradient>
    <inkscape:perspective
       sodipodi:type="inkscape:persp3d"
       inkscape:vp_x="0 : 2.1166667 : 1"
       inkscape:vp_y="0 : 1000 : 0"
       inkscape:vp_z="4.2333331 : 2.1166667 : 1"
       inkscape:persp3d-origin="2.1166666 : 1.4111112 : 1"
       id="perspective14431" />
    <clipPath
       id="clipPath4515"
       clipPathUnits="userSpaceOnUse">
      <rect
         y="-1090.3621"
         x="1958"
         height="452"
         width="248"
         id="rect4517"
         style="fill:#ff08ff;fill-opacity:0.27830188;stroke:none;stroke-width:0.80125982;stroke-linecap:round;stroke-linejoin:round;stroke-miterlimit:1.5;stroke-dasharray:none;stroke-dashoffset:0;stroke-opacity:1;paint-order:normal" />
    </clipPath>
    <linearGradient
       inkscape:collect="always"
       xlink:href="#linearGradient4524"
       id="linearGradient4526"
       x1="4.2498698"
       y1="288.53333"
       x2="4.2167969"
       y2="296.99997"
       gradientUnits="userSpaceOnUse" />
  </defs>
  <sodipodi:namedview
     id="base"
     pagecolor="#ffffff"
     bordercolor="#666666"
     borderopacity="1.0"
     inkscape:pageopacity="0"
     inkscape:pageshadow="2"
     inkscape:zoom="16"
     inkscape:cx="-2.7877886"
     inkscape:cy="8.6429092"
     inkscape:document-units="mm"
     inkscape:current-layer="layer1"
     showgrid="false"
     units="px"
     borderlayer="true"
     inkscape:window-width="1920"
     inkscape:window-height="1027"
     inkscape:window-x="0"
     inkscape:window-y="27"
     inkscape:window-maximized="1"
     inkscape:pagecheckerboard="true"
     inkscape:snap-page="true"
     showguides="false" />
  <metadata
     id="metadata36783">
    <rdf:RDF>
      <cc:Work
         rdf:about="">
        <dc:format>image/svg+xml</dc:format>
        <dc:type
           rdf:resource="http://purl.org/dc/dcmitype/StillImage" />
        <dc:title />
      </cc:Work>
    </rdf:RDF>
  </metadata>
  <g
     inkscape:label="Layer 1"
     inkscape:groupmode="layer"
     id="layer1"
     transform="translate(0,-292.76664)">
    <g
       id="g4573"
       transform="matrix(0.50000003,0,0,0.50040428,0,148.38334)">
      <path
         d="m 8.4666662,292.76321 a 4.2333331,4.2299132 0 0 1 -4.1629603,4.22933 4.2333331,4.2299132 0 0 1 -4.30136622,-4.08871 4.2333331,4.2299132 0 0 1 4.01995292,-4.36527 4.2333331,4.2299132 0 0 1 4.4350175,3.94358"
         sodipodi:open="true"
         sodipodi:end="6.2166883"
         sodipodi:start="0"
         sodipodi:ry="4.2299132"
         sodipodi:rx="4.2333331"
         sodipodi:cy="292.76321"
         sodipodi:cx="4.2333331"
         sodipodi:type="arc"
         id="path48104"
         style="opacity:1;fill:url(#linearGradient4526);fill-opacity:1;stroke:none;stroke-width:0.10322113;stroke-linecap:round;stroke-linejoin:round;stroke-miterlimit:4;stroke-dasharray:none;stroke-dashoffset:0;stroke-opacity:1" />
      <path
         sodipodi:nodetypes="cccsscssscccsscssccscsssscccssccsssscscsscscscscssscccccscsccscscsssccsssssssc"
         inkscape:connector-curvature="0"
         id="path4519-2"
         d="m 4.1012654,296.1169 -0.00969,-0.87623 -0.1119993,-0.0254 c -0.250281,-0.0568 -0.5267592,-0.22474 -0.6867033,-0.41719 -0.169486,-0.20392 -0.3111479,-0.57326 -0.3465008,-0.90339 l -0.013196,-0.12323 0.1238564,0.0135 c 0.739207,0.0806 1.2267996,0.47747 1.3564475,1.10418 0.032274,0.15602 0.036016,0.27412 0.036303,1.12924 l 2.319e-4,0.70716 -0.3390639,0.003 c 0,0 -0.00768,-0.43037 -0.00969,-0.61186 z m 0.6975464,-1.06153 c 0,-0.009 -0.012772,-0.089 -0.028378,-0.17822 -0.03445,-0.19699 -0.083739,-0.34397 -0.1760144,-0.52489 l -0.069707,-0.13667 0.1020643,-0.10326 c 0.1838071,-0.18597 0.4680257,-0.29978 0.8198929,-0.32831 l 0.165947,-0.0134 -9.31e-5,0.0559 c -1.866e-4,0.12 -0.060744,0.42033 -0.1144235,0.5673 -0.094095,0.25762 -0.2461828,0.45032 -0.4492685,0.56924 -0.1034942,0.0606 -0.2500349,0.11473 -0.2500349,0.0924 z m -0.7266114,-1.44805 c -0.6528273,-0.0885 -0.990446,-0.41818 -1.1039344,-1.07789 -0.01627,-0.0946 -0.029578,-0.19824 -0.029578,-0.23038 v -0.0585 l 0.1705507,0.0121 c 0.1952133,0.0138 0.4721552,0.0882 0.6121982,0.1643 0.1526989,0.083 0.305556,0.25037 0.3968274,0.43447 0.084151,0.16973 0.162953,0.44422 0.1861863,0.64854 l 0.013763,0.121 -0.09394,-0.003 c -0.051667,-0.002 -0.1200979,-0.006 -0.1520687,-0.0108 z m 0.5639153,-0.25577 c -0.019599,-0.11775 -0.063636,-0.29762 -0.09786,-0.39971 l -0.062224,-0.18563 0.072249,-0.10018 c 0.1726347,-0.23937 0.4889049,-0.3848 0.8998515,-0.41378 l 0.1644832,-0.0116 v 0.0584 c 0,0.086 -0.054441,0.38755 -0.090093,0.49911 -0.1003226,0.31392 -0.2900933,0.54296 -0.5529047,0.6673 -0.088615,0.0419 -0.1918864,0.0816 -0.2294924,0.0882 l -0.068374,0.012 z m -0.6807149,-1.28021 c -0.4731622,-0.0618 -0.7941684,-0.27056 -0.9568084,-0.62216 -0.040994,-0.0886 -0.088862,-0.22212 -0.1063733,-0.29666 -0.035495,-0.15108 -0.071965,-0.42053 -0.058711,-0.43377 0.017873,-0.0179 0.2458464,0.002 0.4124185,0.0363 0.2236028,0.0458 0.4009336,0.13138 0.5404007,0.26088 0.2279081,0.21163 0.3255914,0.44864 0.4213403,1.02233 0.00842,0.0505 0.00512,0.0531 -0.06329,0.0508 -0.039694,-0.001 -0.1247363,-0.009 -0.1889761,-0.0177 z m 0.6030292,-0.0605 c -0.00517,-0.0248 -0.01461,-0.0887 -0.020988,-0.14194 -0.00637,-0.0532 -0.033541,-0.18637 -0.060361,-0.29584 l -0.048769,-0.19904 c 0.061583,-0.18353 0.300551,-0.44827 0.5041903,-0.53811 0.1387906,-0.0595 0.3231484,-0.10141 0.5119199,-0.11648 l 0.1728074,-0.0138 -0.012905,0.14226 c -0.032267,0.35582 -0.1683011,0.70041 -0.3495413,0.88543 -0.1486641,0.15177 -0.3850438,0.27245 -0.6053768,0.30908 -0.074899,0.0125 -0.082355,0.01 -0.09098,-0.0316 z m -0.3909628,-1.12392 c -0.2653901,-0.36022 -0.3732724,-0.65462 -0.3517356,-0.95986 0.017049,-0.24163 0.121295,-0.46334 0.343662,-0.73089 l 0.1065698,-0.12822 0.074674,0.0839 c 0.1218383,0.13683 0.2608309,0.36284 0.3252452,0.52885 0.1508416,0.38875 0.07101,0.77052 -0.2440228,1.16695 -0.06981,0.0879 -0.1356436,0.15973 -0.1462966,0.15973 -0.010652,0 -0.059295,-0.0542 -0.1080957,-0.12043 z"
         style="clip-rule:evenodd;fill:#ffec00;fill-opacity:1;fill-rule:evenodd;stroke:#ffec00;stroke-width:0.01936847;stroke-linecap:round;stroke-linejoin:round;stroke-miterlimit:1.5;stroke-opacity:1" />
    </g>
  </g>
</svg>
